<?xml version="1.0" standalone="no"?>
<!DOCTYPE svg PUBLIC "-//W3C//DTD SVG 20010904//EN"
 "http://www.w3.org/TR/2001/REC-SVG-20010904/DTD/svg10.dtd">
<svg version="1.0" xmlns="http://www.w3.org/2000/svg"
 width="88.000000pt" height="126.000000pt" viewBox="0 0 88.000000 126.000000"
 preserveAspectRatio="xMidYMid meet">

<g transform="translate(0.000000,126.000000) scale(0.100000,-0.100000)"
fill="#000000" stroke="none">
<path d="M274 1121 c-12 -5 -30 -21 -42 -35 -11 -15 -41 -33 -67 -40 -66 -20
-113 -61 -141 -120 -30 -65 -30 -90 1 -173 19 -51 24 -77 19 -109 -5 -38 -4
-42 20 -48 17 -4 23 -11 20 -21 -4 -9 0 -15 10 -15 9 0 16 -7 16 -15 0 -8 6
-15 14 -15 7 0 21 -11 30 -25 21 -31 46 -32 83 -1 41 34 68 46 103 46 25 0 33
-6 44 -32 15 -34 12 -52 -13 -82 -13 -16 -13 -18 -1 -11 35 19 50 40 49 69 -1
70 -42 103 -203 168 -52 20 -94 45 -122 73 -41 39 -44 45 -44 96 0 118 94 197
245 207 77 5 145 -3 145 -17 0 -5 -45 -10 -100 -13 -55 -2 -104 -8 -110 -14
-16 -16 24 -60 66 -74 42 -14 71 -8 121 26 31 21 47 25 91 22 28 -2 52 0 52 3
0 15 -75 90 -119 118 -52 34 -129 48 -167 32z"/>
<path d="M330 830 c0 -47 3 -60 15 -60 8 0 15 6 15 14 0 7 13 16 29 19 37 8
56 39 41 67 -8 15 -21 20 -55 20 l-45 0 0 -60z m68 17 c2 -12 -3 -17 -17 -17
-12 0 -21 6 -21 13 0 31 32 34 38 4z"/>
<path d="M460 830 l0 -60 45 0 c33 0 45 4 45 15 0 10 -10 15 -30 15 -16 0 -30
5 -30 10 0 6 11 10 25 10 31 0 33 17 3 22 -30 4 -25 22 7 26 43 6 28 22 -20
22 l-45 0 0 -60z"/>
<path d="M580 829 l0 -60 42 3 c49 4 66 28 19 28 -30 0 -31 1 -31 45 0 33 -4
45 -15 45 -12 0 -15 -13 -15 -61z"/>
<path d="M682 833 l3 -58 48 -3 c37 -2 47 0 47 12 0 11 -10 16 -30 16 -16 0
-30 5 -30 10 0 6 11 10 25 10 14 0 25 5 25 10 0 6 -11 10 -25 10 -16 0 -25 6
-25 15 0 10 10 15 30 15 17 0 30 5 30 10 0 6 -23 10 -50 10 l-51 0 3 -57z"/>
<path d="M430 720 c0 -11 5 -20 10 -20 6 0 10 9 10 20 0 11 -4 20 -10 20 -5 0
-10 -9 -10 -20z"/>
<path d="M498 733 c-23 -6 -34 -49 -18 -68 7 -8 25 -15 41 -15 49 0 62 57 18
80 -10 6 -19 9 -21 9 -2 -1 -11 -3 -20 -6z m40 -37 c2 -10 -1 -23 -7 -29 -15
-15 -46 16 -37 38 8 21 40 15 44 -9z"/>
<path d="M802 724 c-40 -28 -22 -74 30 -74 48 0 60 57 17 80 -23 13 -21 13
-47 -6z m43 -34 c0 -13 -6 -25 -12 -27 -16 -6 -27 21 -19 43 9 23 31 11 31
-16z"/>
<path d="M330 690 c0 -39 1 -40 35 -40 24 0 37 6 45 20 17 32 -4 60 -45 60
-34 0 -35 -1 -35 -40z m58 6 c4 -19 -16 -39 -30 -30 -4 3 -8 16 -8 30 0 19 5
25 17 22 10 -2 19 -12 21 -22z"/>
<path d="M580 706 c0 -42 11 -56 41 -56 30 0 49 23 49 59 0 35 -28 24 -32 -11
-2 -18 -7 -33 -13 -33 -5 0 -11 15 -13 33 -4 38 -32 45 -32 8z"/>
<path d="M690 690 c0 -39 12 -53 24 -27 5 10 7 10 12 0 3 -7 12 -13 20 -13 9
0 12 4 9 10 -3 5 -2 18 3 27 15 28 3 43 -34 43 -33 0 -34 -1 -34 -40z m50 15
c0 -8 -7 -15 -15 -15 -8 0 -15 7 -15 15 0 8 7 15 15 15 8 0 15 -7 15 -15z"/>
</g>
</svg>
